<svg width="38" height="38" viewBox="0 0 38 38" fill="none" xmlns="http://www.w3.org/2000/svg">
<circle cx="19" cy="19" r="19" fill="white"/>
<path d="M20.4298 13.6428L20.4296 13.643L19.8529 14.2372L19.4941 14.607L19.1353 14.2372L18.5586 13.643L18.558 13.6424C17.2503 12.2904 15.1599 12.1011 13.7796 13.2771C12.1641 14.6561 12.0773 17.1381 13.5246 18.6346L20.4298 13.6428ZM20.4298 13.6428C21.7407 12.2902 23.8283 12.1013 25.2084 13.277C26.824 14.656 26.9109 17.138 25.4608 18.6345L25.4607 18.6346L19.7966 24.4831C19.6271 24.658 19.3581 24.658 19.1887 24.4831L13.5248 18.6348L20.4298 13.6428Z" stroke="black"/>
</svg>
